<svg width="27" height="30" viewBox="0 0 27 30" fill="none" xmlns="http://www.w3.org/2000/svg">
<path d="M10.5 19.5C9.8 19.5 9.20833 19.2583 8.725 18.775C8.24167 18.2917 8 17.7 8 17C8 16.3 8.24167 15.7083 8.725 15.225C9.20833 14.7417 9.8 14.5 10.5 14.5C11.2 14.5 11.7917 14.7417 12.275 15.225C12.7583 15.7083 13 16.3 13 17C13 17.7 12.7583 18.2917 12.275 18.775C11.7917 19.2583 11.2 19.5 10.5 19.5ZM6.5 25C5.95 25 5.47917 24.8042 5.0875 24.4125C4.69583 24.0208 4.5 23.55 4.5 23V9C4.5 8.45 4.69583 7.97917 5.0875 7.5875C5.47917 7.19583 5.95 7 6.5 7H7.5V5H9.5V7H17.5V5H19.5V7H20.5C21.05 7 21.5208 7.19583 21.9125 7.5875C22.3042 7.97917 22.5 8.45 22.5 9V23C22.5 23.55 22.3042 24.0208 21.9125 24.4125C21.5208 24.8042 21.05 25 20.5 25H6.5ZM6.5 23H20.5V13H6.5V23Z" fill="#49454F"/>
</svg>
